<svg version="1.2" xmlns="http://www.w3.org/2000/svg" viewBox="0 0 170 144" width="170" height="144">
	
	<path id="레이어 8" fill-rule="evenodd" fill="#FFFFFF" d="m36.82 77.04c-2.43-2.79-2.43-7.32 0-10.11l24.85-28.57c2.43-2.79 6.37-2.79 8.79 0 2.43 2.79 2.43 7.32 0 10.11l-14.25 16.39h40.91c3.43 0 6.21 3.19 6.21 7.14 0 3.95-2.78 7.14-6.21 7.14h-40.91l14.25 16.39c2.43 2.79 2.43 7.32 0 10.11-2.42 2.79-6.36 2.79-8.79 0 0 0-24.85-28.57-24.85-28.6zm66.51-40.75c-3.44 0-6.21-3.2-6.21-7.15 0-3.95 2.77-7.14 6.21-7.14h12.42c10.29 0 18.64 9.6 18.64 21.43v57.14c0 11.83-8.35 21.43-18.64 21.43h-12.42c-3.44 0-6.21-3.19-6.21-7.14 0-3.95 2.77-7.15 6.21-7.15h12.42c3.44 0 6.22-3.19 6.22-7.14v-57.14c0-3.95-2.78-7.14-6.22-7.14z"/>
</svg>