<svg version="1.2" xmlns="http://www.w3.org/2000/svg" viewBox="0 0 170 144" width="170" height="144">
	
	<path id="레이어 7" fill-rule="evenodd" fill="#FFFFFF" d="m59.43 57.69h61.12v-7.14c0-7.88-5.22-14.29-11.64-14.29h-21.36c-3.09 0-6.05-1.49-8.24-4.17l-4.82-5.92c-2.18-2.67-5.14-4.17-8.24-4.17h-21.37c-6.42 0-11.64 6.41-11.64 14.29v62.45l16.13-33.93c2.1-4.42 5.92-7.12 10.06-7.12zm-25.39 53.55c-1.05 2.21-1.05 4.93-0.02 7.17 1.04 2.23 2.95 3.59 5.04 3.59h72.76c2.07 0 3.98-1.34 5.02-3.53l20.37-42.85c1.05-2.21 1.05-4.94 0.02-7.17-1.04-2.23-2.95-3.59-5.04-3.59h-72.76c-2.07 0-3.98 1.34-5.03 3.55 0.01-0.03-20.36 42.83-20.36 42.83z"/>
</svg>