<svg version="1.2" xmlns="http://www.w3.org/2000/svg" viewBox="0 0 170 144" width="170" height="144">
	
	<g id="폴더 1 copy">
		<path id="레이어 6" fill="#FFFFFF" d="m87.35 78.95c-3.14-3.84-3.14-10.09 0-13.93l32.13-39.36c2.31-2.83 5.75-3.66 8.76-2.12 3.02 1.54 4.97 5.1 4.97 9.1v78.72c0 3.97-1.95 7.56-4.97 9.1-3.01 1.54-6.45 0.68-8.76-2.12 0 0-32.13-39.36-32.13-39.39z"/>
		<path id="레이어 6 copy" fill="#FFFFFF" d="m38.35 78.95c-3.14-3.84-3.14-10.09 0-13.93l32.13-39.36c2.31-2.83 5.75-3.66 8.76-2.12 3.02 1.54 4.97 5.1 4.97 9.1v78.72c0 3.97-1.95 7.56-4.97 9.1-3.01 1.54-6.45 0.68-8.76-2.12 0 0-32.13-39.36-32.13-39.39z"/>
	</g>
</svg>