<svg version="1.2" xmlns="http://www.w3.org/2000/svg" viewBox="0 0 170 144" width="170" height="144">
	
	<path id="레이어 9" fill-rule="evenodd" fill="#FFFFFF" d="m84.5 22c27.34 0 49.5 22.16 49.5 49.5 0 27.34-22.16 49.5-49.5 49.5-10.5 0-20.26-3.29-28.31-8.88-2.8-1.97-3.5-5.82-1.53-8.62 1.98-2.8 5.82-3.48 8.63-1.53 6.01 4.2 13.32 6.65 21.21 6.65 20.5 0 37.12-16.62 37.12-37.12 0-20.5-16.62-37.13-37.12-37.13-10.25 0-19.53 4.16-26.24 10.87l5.96 5.96c2.92 2.92 0.85 7.92-3.29 7.92h-21.29c-2.57 0-4.64-2.06-4.64-4.64v-21.28c0-4.12 5.01-6.19 7.93-3.27l6.57 6.57c8.95-8.95 21.33-14.5 35-14.5zm4.62 29.39v18.2l12.57 12.56c1.82 1.8 1.8 4.74 0 6.56-1.8 1.82-4.74 1.82-6.56 0l-13.92-13.92c-0.87-0.87-1.35-2.05-1.35-3.29v-20.11c0-2.57 2.07-4.64 4.64-4.64 2.55 0 4.62 2.07 4.62 4.64z"/>
</svg>