<svg version="1.2" xmlns="http://www.w3.org/2000/svg" viewBox="0 0 170 144" width="170" height="144">
	
	<path id="레이어 8" fill-rule="evenodd" fill="#FFFFFF" d="m107.72 105.64c-2.42 2.79-6.36 2.79-8.79 0-2.43-2.79-2.43-7.32 0-10.11l14.25-16.39h-40.91c-3.43 0-6.21-3.19-6.21-7.14 0-3.95 2.78-7.14 6.21-7.14h40.91l-14.25-16.39c-2.43-2.79-2.43-7.32 0-10.11 2.43-2.79 6.37-2.79 8.79 0l24.85 28.57c2.43 2.79 2.43 7.32 0 10.11 0 0.03-24.85 28.6-24.85 28.6zm-54.08-69.35c-3.44 0-6.22 3.19-6.22 7.14v57.14c0 3.95 2.78 7.14 6.22 7.14h12.42c3.44 0 6.21 3.2 6.21 7.15 0 3.95-2.77 7.14-6.21 7.14h-12.42c-10.29 0-18.64-9.6-18.64-21.43v-57.14c0-11.83 8.35-21.43 18.64-21.43h12.42c3.44 0 6.21 3.19 6.21 7.14 0 3.95-2.77 7.15-6.21 7.15z"/>
</svg>