<svg version="1.2" xmlns="http://www.w3.org/2000/svg" viewBox="0 0 170 144" width="170" height="144">
	
	<path id="레이어 2" fill-rule="evenodd" fill="#FFFFFF" d="m87.07 23.13c1.98 1.15 3.26 3.66 3.26 6.45v84.82c0 2.78-1.28 5.3-3.26 6.45-1.99 1.15-4.33 0.69-5.95-1.17l-23.33-26.48h-11.72c-6.11 0-11.07-6.34-11.07-14.14v-14.14c0-7.8 4.96-14.14 11.07-14.14h11.72l23.33-26.48c1.62-1.86 3.96-2.3 5.95-1.17zm21.42 29.2l9.51 12.15 9.51-12.15c1.63-2.08 4.26-2.08 5.86 0 1.61 2.08 1.63 5.43 0 7.49l-9.51 12.15 9.51 12.15c1.63 2.07 1.63 5.43 0 7.48-1.62 2.06-4.25 2.08-5.86 0l-9.51-12.14-9.51 12.14c-1.62 2.08-4.25 2.08-5.86 0-1.61-2.07-1.63-5.43 0-7.48l9.51-12.15-9.51-12.15c-1.63-2.08-1.63-5.44 0-7.49 1.62-2.06 4.25-2.08 5.86 0z"/>
</svg>