<svg version="1.2" xmlns="http://www.w3.org/2000/svg" viewBox="0 0 170 144" width="170" height="144">
	
	<path id="레이어 1" fill-rule="evenodd" fill="#FFFFFF" d="m113.09 24.54c-1.29 2.22-1.06 5.48 0.55 7.29 8.47 9.51 13.86 23.96 13.86 40.17 0 16.21-5.39 30.66-13.86 40.15-1.61 1.81-1.86 5.06-0.55 7.28 1.32 2.23 3.68 2.57 5.28 0.76 10.15-11.36 16.63-28.74 16.63-48.19 0-19.45-6.48-36.8-16.63-48.19-1.6-1.81-3.98-1.49-5.28 0.73zm-9.45 16.07c-1.3 2.22-1.06 5.47 0.55 7.28 5.08 5.72 8.31 14.39 8.31 24.11 0 9.72-3.23 18.39-8.31 24.08-1.61 1.81-1.86 5.07-0.55 7.29 1.31 2.22 3.67 2.57 5.28 0.76 6.75-7.59 11.08-19.17 11.08-32.13 0-12.96-4.33-24.54-11.08-32.13-1.61-1.81-3.98-1.48-5.28 0.74zm-9.45 16.06c-1.3 2.22-1.07 5.48 0.54 7.29 1.69 1.92 2.77 4.81 2.77 8.04 0 3.23-1.08 6.12-2.77 8.02-1.61 1.81-1.86 5.07-0.54 7.29 1.31 2.22 3.67 2.56 5.28 0.75 3.36-3.79 5.53-9.57 5.53-16.06 0-6.49-2.17-12.27-5.53-16.06-1.61-1.81-3.99-1.49-5.28 0.73zm-17.52-31.22l-21.08 25.85h-10.59c-5.52 0-10 6.19-10 13.8v13.8c0 7.61 4.48 13.8 10 13.8h10.59l21.08 25.85c1.47 1.81 3.58 2.26 5.38 1.14 1.79-1.12 2.95-3.58 2.95-6.29v-82.8c0-2.71-1.16-5.17-2.95-6.29-1.8-1.1-3.91-0.67-5.38 1.14z"/>
</svg>